Snippet.ufo
<glyph name="quotedbl" format="1">
  <advance width="282"/>
  <unicode hex="0022"/>
  <outline>
    <contour>
      <point x="60" y="492" type="line"/>
      <point x="112" y="492" type="line"/>
      <point x="122" y="684" type="line"/>
      <point x="50" y="684" type="line"/>
    </contour>
    <contour>
      <point x="170" y="492" type="line"/>
      <point x="222" y="492" type="line"/>
      <point x="232" y="684" type="line"/>
      <point x="160" y="684" type="line"/>
    </contour>
  </outline>
</glyph>
<glyph name="three" format="1">
  <advance width="499"/>
  <unicode hex="0033"/>
  <outline>
    <contour>
      <point x="347" y="495" type="curve" smooth="yes"/>
      <point x="347" y="389"/>
      <point x="254" y="377"/>
      <point x="160" y="377" type="curve" smooth="yes"/>
      <point x="139" y="377" type="line"/>
      <point x="139" y="322" type="line"/>
      <point x="158" y="322" type="line" smooth="yes"/>
      <point x="213" y="322"/>
      <point x="263" y="329"/>
      <point x="303" y="344" type="curve"/>
      <point x="333" y="318"/>
      <point x="380" y="265"/>
      <point x="380" y="188" type="curve" smooth="yes"/>
      <point x="380" y="82"/>
      <point x="314" y="45"/>
      <point x="203" y="45" type="curve" smooth="yes"/>
      <point x="114" y="45"/>
      <point x="35" y="55"/>
      <point x="35" y="55" type="curve"/>
      <point x="35" y="1" type="line"/>
      <point x="35" y="1"/>
      <point x="130" y="-10"/>
      <point x="206" y="-10" type="curve" smooth="yes"/>
      <point x="351" y="-10"/>
      <point x="439" y="52"/>
      <point x="439" y="184" type="curve" smooth="yes"/>
      <point x="439" y="283"/>
      <point x="386" y="343"/>
      <point x="352" y="372" type="curve"/>
      <point x="385" y="398"/>
      <point x="404" y="437"/>
      <point x="404" y="492" type="curve" smooth="yes"/>
      <point x="404" y="598"/>
      <point x="350" y="663"/>
      <point x="208" y="663" type="curve" smooth="yes"/>
      <point x="168" y="663"/>
      <point x="89" y="659"/>
      <point x="44" y="655" type="curve"/>
      <point x="44" y="603" type="line"/>
      <point x="96" y="607"/>
      <point x="181" y="611"/>
      <point x="215" y="611" type="curve" smooth="yes"/>
      <point x="301" y="611"/>
      <point x="347" y="575"/>
    </contour>
  </outline>
</glyph>
<glyph name="four" format="1">
  <advance width="586"/>
  <unicode hex="0034"/>
  <outline>
    <contour>
      <point x="130" y="653" type="line"/>
      <point x="70" y="237" type="line"/>
      <point x="440" y="237" type="line"/>
      <point x="440" y="0" type="line"/>
      <point x="501" y="0" type="line"/>
      <point x="501" y="653" type="line"/>
      <point x="440" y="653" type="line"/>
      <point x="440" y="294" type="line"/>
      <point x="139" y="294" type="line"/>
      <point x="191" y="653" type="line"/>
    </contour>
  </outline>
</glyph>
<glyph name="less" format="1">
  <advance width="391"/>
  <unicode hex="003C"/>
  <outline>
    <contour>
      <point x="30" y="265" type="line"/>
      <point x="296" y="80" type="line"/>
      <point x="330" y="129" type="line"/>
      <point x="132" y="267" type="line"/>
      <point x="328" y="403" type="line"/>
      <point x="296" y="450" type="line"/>
    </contour>
  </outline>
</glyph>
<glyph name="at" format="1">
  <advance width="759"/>
  <unicode hex="0040"/>
  <outline>
    <contour>
      <point x="547" y="133" type="curve" smooth="yes"/>
      <point x="518" y="133"/>
      <point x="481" y="151"/>
      <point x="481" y="214" type="curve" smooth="yes"/>
      <point x="481" y="306" type="line" smooth="yes"/>
      <point x="481" y="366"/>
      <point x="449" y="400"/>
      <point x="381" y="400" type="curve" smooth="yes"/>
      <point x="349" y="400"/>
      <point x="311" y="384"/>
      <point x="286" y="369" type="curve"/>
      <point x="308" y="333" type="line"/>
      <point x="332" y="346"/>
      <point x="355" y="357"/>
      <point x="381" y="357" type="curve" smooth="yes"/>
      <point x="416" y="357"/>
      <point x="435" y="336"/>
      <point x="435" y="301" type="curve" smooth="yes"/>
      <point x="435" y="277" type="line"/>
      <point x="395" y="277" type="line" smooth="yes"/>
      <point x="336" y="277"/>
      <point x="274" y="256"/>
      <point x="274" y="194" type="curve" smooth="yes"/>
      <point x="274" y="138"/>
      <point x="310" y="108"/>
      <point x="358" y="108" type="curve" smooth="yes"/>
      <point x="406" y="108"/>
      <point x="434" y="135"/>
      <point x="445" y="170" type="curve"/>
      <point x="454" y="117"/>
      <point x="489" y="88"/>
      <point x="547" y="88" type="curve" smooth="yes"/>
      <point x="615" y="88"/>
      <point x="684" y="145"/>
      <point x="684" y="256" type="curve" smooth="yes"/>
      <point x="684" y="429"/>
      <point x="566" y="549"/>
      <point x="388" y="549" type="curve" smooth="yes"/>
      <point x="203" y="549"/>
      <point x="90" y="416"/>
      <point x="90" y="233" type="curve" smooth="yes"/>
      <point x="90" y="58"/>
      <point x="209" y="-59"/>
      <point x="388" y="-59" type="curve" smooth="yes"/>
      <point x="470" y="-59"/>
      <point x="557" y="-33"/>
      <point x="597" y="-19" type="curve"/>
      <point x="583" y="26" type="line"/>
      <point x="546" y="14"/>
      <point x="475" y="-11"/>
      <point x="388" y="-11" type="curve" smooth="yes"/>
      <point x="244" y="-11"/>
      <point x="144" y="86"/>
      <point x="144" y="236" type="curve" smooth="yes"/>
      <point x="144" y="391"/>
      <point x="239" y="502"/>
      <point x="388" y="502" type="curve" smooth="yes"/>
      <point x="530" y="502"/>
      <point x="631" y="408"/>
      <point x="631" y="258" type="curve" smooth="yes"/>
      <point x="631" y="169"/>
      <point x="582" y="133"/>
    </contour>
    <contour>
      <point x="369" y="149" type="curve" smooth="yes"/>
      <point x="341" y="149"/>
      <point x="321" y="168"/>
      <point x="321" y="194" type="curve" smooth="yes"/>
      <point x="321" y="229"/>
      <point x="360" y="239"/>
      <point x="395" y="239" type="curve" smooth="yes"/>
      <point x="434" y="239" type="line"/>
      <point x="428" y="191"/>
      <point x="400" y="149"/>
    </contour>
  </outline>
</glyph>
<glyph name="A" format="1">
  <advance width="635"/>
  <unicode hex="0041"/>
  <outline>
    <contour>
      <point x="317" y="685" type="move" name="topUC"/>
    </contour>
    <contour>
      <point x="307" y="703" type="line"/>
      <point x="10" y="0" type="line"/>
      <point x="74" y="0" type="line"/>
      <point x="169" y="227" type="line"/>
      <point x="464" y="227" type="line"/>
      <point x="561" y="0" type="line"/>
      <point x="625" y="0" type="line"/>
      <point x="326" y="703" type="line"/>
    </contour>
    <contour>
      <point x="292" y="517" type="line" smooth="yes"/>
      <point x="302" y="541"/>
      <point x="311" y="573"/>
      <point x="316" y="595" type="curve"/>
      <point x="321" y="574"/>
      <point x="330" y="542"/>
      <point x="341" y="517" type="curve" smooth="yes"/>
      <point x="440" y="284" type="line"/>
      <point x="193" y="284" type="line"/>
    </contour>
  </outline>
</glyph>
<glyph name="G" format="1">
  <advance width="689"/>
  <unicode hex="0047"/>
  <outline>
    <contour>
      <point x="547" y="313" type="line"/>
      <point x="547" y="230" type="line" smooth="yes"/>
      <point x="547" y="191"/>
      <point x="535" y="45"/>
      <point x="358" y="45" type="curve" smooth="yes"/>
      <point x="200" y="45"/>
      <point x="121" y="167"/>
      <point x="121" y="342" type="curve" smooth="yes"/>
      <point x="121" y="371"/>
      <point x="124" y="400"/>
      <point x="130" y="426" type="curve"/>
      <point x="408" y="426" type="line" smooth="yes"/>
      <point x="561" y="426"/>
      <point x="624" y="480"/>
      <point x="624" y="555" type="curve" smooth="yes"/>
      <point x="624" y="638"/>
      <point x="541" y="694"/>
      <point x="398" y="694" type="curve" smooth="yes"/>
      <point x="194" y="694"/>
      <point x="60" y="541"/>
      <point x="60" y="342" type="curve" smooth="yes"/>
      <point x="60" y="144"/>
      <point x="150" y="-10"/>
      <point x="358" y="-10" type="curve" smooth="yes"/>
      <point x="457" y="-10"/>
      <point x="514" y="28"/>
      <point x="547" y="75" type="curve"/>
      <point x="547" y="-250" type="line"/>
      <point x="606" y="-250" type="line"/>
      <point x="606" y="313" type="line"/>
    </contour>
    <contour>
      <point x="398" y="639" type="curve" smooth="yes"/>
      <point x="497" y="639"/>
      <point x="561" y="610"/>
      <point x="561" y="555" type="curve" smooth="yes"/>
      <point x="561" y="506"/>
      <point x="527" y="478"/>
      <point x="408" y="478" type="curve" smooth="yes"/>
      <point x="147" y="478" type="line"/>
      <point x="189" y="577"/>
      <point x="279" y="639"/>
    </contour>
  </outline>
</glyph>
<glyph name="K" format="1">
  <advance width="610"/>
  <unicode hex="004B"/>
  <outline>
    <contour>
      <point x="590" y="0" type="line"/>
      <point x="502" y="246" type="line" smooth="yes"/>
      <point x="481" y="303"/>
      <point x="447" y="348"/>
      <point x="383" y="367" type="curve"/>
      <point x="565" y="660" type="line"/>
      <point x="513" y="692" type="line"/>
      <point x="319" y="376" type="line"/>
      <point x="316" y="376" type="line"/>
      <point x="315" y="369" type="line"/>
      <point x="314" y="369" type="line"/>
      <point x="316" y="376" type="line"/>
      <point x="156" y="376" type="line"/>
      <point x="156" y="684" type="line"/>
      <point x="95" y="684" type="line"/>
      <point x="95" y="0" type="line"/>
      <point x="156" y="0" type="line"/>
      <point x="156" y="322" type="line"/>
      <point x="306" y="322" type="line" smooth="yes"/>
      <point x="410" y="322"/>
      <point x="431" y="283"/>
      <point x="456" y="208" type="curve" smooth="yes"/>
      <point x="526" y="0" type="line"/>
    </contour>
  </outline>
</glyph>
<glyph name="L" format="1">
  <advance width="503"/>
  <unicode hex="004C"/>
  <outline>
    <contour>
      <point x="483" y="57" type="line"/>
      <point x="156" y="57" type="line"/>
      <point x="156" y="684" type="line"/>
      <point x="95" y="684" type="line"/>
      <point x="95" y="0" type="line"/>
      <point x="483" y="0" type="line"/>
    </contour>
  </outline>
</glyph>
<glyph name="R" format="1">
  <advance width="591"/>
  <unicode hex="0052"/>
  <outline>
    <contour>
      <point x="571" y="0" type="line"/>
      <point x="481" y="216" type="line" smooth="yes"/>
      <point x="460" y="265"/>
      <point x="435" y="300"/>
      <point x="391" y="320" type="curve"/>
      <point x="468" y="344"/>
      <point x="517" y="405"/>
      <point x="517" y="496" type="curve" smooth="yes"/>
      <point x="517" y="610"/>
      <point x="434" y="694"/>
      <point x="315" y="694" type="curve" smooth="yes"/>
      <point x="231" y="694"/>
      <point x="219" y="684"/>
      <point x="157" y="684" type="curve" smooth="yes"/>
      <point x="104" y="684"/>
      <point x="66" y="698"/>
      <point x="38" y="724" type="curve"/>
      <point x="5" y="690" type="line"/>
      <point x="32" y="653"/>
      <point x="72" y="637"/>
      <point x="114" y="631" type="curve"/>
      <point x="114" y="0" type="line"/>
      <point x="175" y="0" type="line"/>
      <point x="175" y="297" type="line"/>
      <point x="271" y="297" type="line" smooth="yes"/>
      <point x="362" y="297"/>
      <point x="406" y="252"/>
      <point x="435" y="178" type="curve" smooth="yes"/>
      <point x="505" y="0" type="line"/>
    </contour>
    <contour>
      <point x="312" y="639" type="curve" smooth="yes"/>
      <point x="400" y="639"/>
      <point x="457" y="583"/>
      <point x="457" y="496" type="curve" smooth="yes"/>
      <point x="457" y="407"/>
      <point x="397" y="352"/>
      <point x="314" y="352" type="curve" smooth="yes"/>
      <point x="175" y="352" type="line"/>
      <point x="175" y="629" type="line"/>
      <point x="219" y="630"/>
      <point x="228" y="639"/>
    </contour>
  </outline>
</glyph>
<glyph name="S" format="1">
  <advance width="532"/>
  <unicode hex="0053"/>
  <outline>
    <contour>
      <point x="256" y="636" type="curve" smooth="yes"/>
      <point x="295" y="636"/>
      <point x="333" y="634"/>
      <point x="356" y="634" type="curve" smooth="yes"/>
      <point x="409" y="634"/>
      <point x="447" y="640"/>
      <point x="483" y="690" type="curve"/>
      <point x="450" y="724" type="line"/>
      <point x="422" y="698"/>
      <point x="401" y="689"/>
      <point x="356" y="689" type="curve" smooth="yes"/>
      <point x="337" y="689"/>
      <point x="306" y="691"/>
      <point x="266" y="691" type="curve" smooth="yes"/>
      <point x="146" y="691"/>
      <point x="70" y="621"/>
      <point x="70" y="537" type="curve" smooth="yes"/>
      <point x="70" y="401"/>
      <point x="173" y="366"/>
      <point x="264" y="332" type="curve" smooth="yes"/>
      <point x="349" y="300"/>
      <point x="430" y="266"/>
      <point x="430" y="169" type="curve" smooth="yes"/>
      <point x="430" y="76"/>
      <point x="355" y="45"/>
      <point x="270" y="45" type="curve" smooth="yes"/>
      <point x="186" y="45"/>
      <point x="118" y="81"/>
      <point x="68" y="112" type="curve"/>
      <point x="35" y="64" type="line"/>
      <point x="91" y="23"/>
      <point x="173" y="-10"/>
      <point x="259" y="-10" type="curve" smooth="yes"/>
      <point x="376" y="-10"/>
      <point x="492" y="38"/>
      <point x="492" y="169" type="curve" smooth="yes"/>
      <point x="492" y="300"/>
      <point x="388" y="348"/>
      <point x="297" y="381" type="curve" smooth="yes"/>
      <point x="213" y="411"/>
      <point x="132" y="438"/>
      <point x="132" y="537" type="curve" smooth="yes"/>
      <point x="132" y="592"/>
      <point x="177" y="636"/>
    </contour>
  </outline>
</glyph>
<glyph name="Y" format="1">
  <advance width="532"/>
  <unicode hex="0059"/>
  <outline>
    <contour>
      <point x="278" y="685" type="move" name="topUC"/>
    </contour>
    <contour>
      <point x="358" y="262" type="curve"/>
      <point x="502" y="677" type="line"/>
      <point x="445" y="694" type="line"/>
      <point x="311" y="309" type="line"/>
      <point x="250" y="310"/>
      <point x="210" y="346"/>
      <point x="191" y="406" type="curve"/>
      <point x="94" y="695" type="line"/>
      <point x="35" y="680" type="line"/>
      <point x="132" y="391" type="line"/>
      <point x="149" y="338"/>
      <point x="187" y="284"/>
      <point x="246" y="264" type="curve"/>
      <point x="246" y="0" type="line"/>
      <point x="307" y="0" type="line"/>
      <point x="307" y="256" type="line"/>
      <point x="323" y="256"/>
      <point x="344" y="259"/>
    </contour>
  </outline>
</glyph>
<glyph name="bracketleft" format="1">
  <advance width="328"/>
  <unicode hex="005B"/>
  <outline>
    <contour>
      <point x="50" y="750" type="line"/>
      <point x="50" y="-174" type="line"/>
      <point x="288" y="-174" type="line"/>
      <point x="288" y="-117" type="line"/>
      <point x="111" y="-117" type="line"/>
      <point x="111" y="693" type="line"/>
      <point x="288" y="693" type="line"/>
      <point x="288" y="750" type="line"/>
    </contour>
  </outline>
</glyph>
<glyph name="backslash" format="1">
  <advance width="392"/>
  <unicode hex="005C"/>
  <outline>
    <contour>
      <point x="50" y="750" type="line"/>
      <point x="268" y="-70" type="line"/>
      <point x="332" y="-70" type="line"/>
      <point x="113" y="750" type="line"/>
    </contour>
  </outline>
</glyph>
<glyph name="grave" format="1">
  <advance width="520"/>
  <unicode hex="0060"/>
  <outline>
    <contour>
      <point x="328" y="498" type="move" name="_top"/>
    </contour>
    <contour>
      <point x="357" y="601" type="line"/>
      <point x="199" y="726" type="line"/>
      <point x="163" y="677" type="line"/>
      <point x="335" y="567" type="line"/>
    </contour>
  </outline>
</glyph>
<glyph name="f" format="1">
  <advance width="393"/>
  <unicode hex="0066"/>
  <outline>
    <contour>
      <point x="288" y="289" type="line"/>
      <point x="140" y="289" type="line"/>
      <point x="140" y="397" type="line"/>
      <point x="188" y="397" type="line" smooth="yes"/>
      <point x="312" y="397"/>
      <point x="388" y="474"/>
      <point x="388" y="592" type="curve" smooth="yes"/>
      <point x="388" y="667"/>
      <point x="341" y="734"/>
      <point x="242" y="734" type="curve" smooth="yes"/>
      <point x="123" y="734"/>
      <point x="85" y="630"/>
      <point x="85" y="494" type="curve" smooth="yes"/>
      <point x="85" y="-250" type="line"/>
      <point x="140" y="-250" type="line"/>
      <point x="140" y="237" type="line"/>
      <point x="288" y="237" type="line"/>
    </contour>
    <contour>
      <point x="140" y="497" type="line" smooth="yes"/>
      <point x="140" y="595"/>
      <point x="158" y="682"/>
      <point x="242" y="682" type="curve" smooth="yes"/>
      <point x="301" y="682"/>
      <point x="331" y="640"/>
      <point x="331" y="592" type="curve" smooth="yes"/>
      <point x="331" y="518"/>
      <point x="292" y="449"/>
      <point x="188" y="449" type="curve" smooth="yes"/>
      <point x="140" y="449" type="line"/>
    </contour>
  </outline>
</glyph>
<glyph name="h" format="1">
  <advance width="542"/>
  <unicode hex="0068"/>
  <outline>
    <contour>
      <point x="487" y="0" type="line"/>
      <point x="469" y="46"/>
      <point x="463" y="84"/>
      <point x="463" y="128" type="curve" smooth="yes"/>
      <point x="463" y="193"/>
      <point x="471" y="252"/>
      <point x="471" y="347" type="curve" smooth="yes"/>
      <point x="471" y="449"/>
      <point x="419" y="508"/>
      <point x="303" y="508" type="curve" smooth="yes"/>
      <point x="239" y="508"/>
      <point x="183" y="480"/>
      <point x="140" y="420" type="curve"/>
      <point x="140" y="726" type="line"/>
      <point x="85" y="726" type="line"/>
      <point x="85" y="0" type="line"/>
      <point x="140" y="0" type="line"/>
      <point x="140" y="355" type="line"/>
      <point x="186" y="418"/>
      <point x="232" y="456"/>
      <point x="303" y="456" type="curve" smooth="yes"/>
      <point x="379" y="456"/>
      <point x="416" y="418"/>
      <point x="416" y="336" type="curve" smooth="yes"/>
      <point x="416" y="243"/>
      <point x="408" y="197"/>
      <point x="408" y="134" type="curve" smooth="yes"/>
      <point x="408" y="95"/>
      <point x="413" y="40"/>
      <point x="434" y="0" type="curve"/>
    </contour>
  </outline>
</glyph>
<glyph name="n" format="1">
  <advance width="547"/>
  <unicode hex="006E"/>
  <outline>
    <contour>
      <point x="308" y="498" type="move" name="top"/>
    </contour>
    <contour>
      <point x="492" y="0" type="line"/>
      <point x="474" y="46"/>
      <point x="468" y="84"/>
      <point x="468" y="128" type="curve" smooth="yes"/>
      <point x="468" y="193"/>
      <point x="476" y="252"/>
      <point x="476" y="347" type="curve" smooth="yes"/>
      <point x="476" y="449"/>
      <point x="424" y="508"/>
      <point x="308" y="508" type="curve" smooth="yes"/>
      <point x="241" y="508"/>
      <point x="183" y="477"/>
      <point x="139" y="413" type="curve"/>
      <point x="132" y="448"/>
      <point x="116" y="482"/>
      <point x="84" y="505" type="curve"/>
      <point x="50" y="472" type="line"/>
      <point x="76" y="444"/>
      <point x="90" y="406"/>
      <point x="90" y="353" type="curve" smooth="yes"/>
      <point x="90" y="0" type="line"/>
      <point x="145" y="0" type="line"/>
      <point x="145" y="353" type="line"/>
      <point x="145" y="355" type="line"/>
      <point x="191" y="418"/>
      <point x="237" y="456"/>
      <point x="308" y="456" type="curve" smooth="yes"/>
      <point x="384" y="456"/>
      <point x="421" y="418"/>
      <point x="421" y="336" type="curve" smooth="yes"/>
      <point x="421" y="243"/>
      <point x="413" y="197"/>
      <point x="413" y="134" type="curve" smooth="yes"/>
      <point x="413" y="95"/>
      <point x="418" y="40"/>
      <point x="439" y="0" type="curve"/>
    </contour>
  </outline>
</glyph>
<glyph name="v" format="1">
  <advance width="516"/>
  <unicode hex="0076"/>
  <outline>
    <contour>
      <point x="336" y="-8" type="curve"/>
      <point x="491" y="486" type="line"/>
      <point x="439" y="503" type="line"/>
      <point x="291" y="34" type="line"/>
      <point x="239" y="41"/>
      <point x="209" y="80"/>
      <point x="194" y="136" type="curve"/>
      <point x="89" y="503" type="line"/>
      <point x="35" y="488" type="line"/>
      <point x="140" y="121" type="line" smooth="yes"/>
      <point x="159" y="54"/>
      <point x="202" y="-14"/>
      <point x="289" y="-14" type="curve" smooth="yes"/>
      <point x="304" y="-14"/>
      <point x="319" y="-12"/>
    </contour>
  </outline>
</glyph>
<glyph name="y" format="1">
  <advance width="516"/>
  <unicode hex="0079"/>
  <outline>
    <contour>
      <point x="274" y="498" type="move" name="top"/>
    </contour>
    <contour>
      <point x="116" y="-261" type="line"/>
      <point x="210" y="-261"/>
      <point x="265" y="-220"/>
      <point x="288" y="-150" type="curve" smooth="yes"/>
      <point x="491" y="486" type="line"/>
      <point x="439" y="503" type="line"/>
      <point x="289" y="35" type="line"/>
      <point x="239" y="42"/>
      <point x="210" y="81"/>
      <point x="194" y="136" type="curve" smooth="yes"/>
      <point x="89" y="503" type="line"/>
      <point x="35" y="488" type="line"/>
      <point x="140" y="121" type="line" smooth="yes"/>
      <point x="161" y="48"/>
      <point x="202" y="-5"/>
      <point x="274" y="-13" type="curve"/>
      <point x="236" y="-132" type="line" smooth="yes"/>
      <point x="219" y="-183"/>
      <point x="182" y="-212"/>
      <point x="109" y="-212" type="curve"/>
    </contour>
  </outline>
</glyph>
<glyph name="bar" format="1">
  <advance width="391"/>
  <unicode hex="007C"/>
  <outline>
    <contour>
      <point x="165" y="750" type="line"/>
      <point x="165" y="-70" type="line"/>
      <point x="226" y="-70" type="line"/>
      <point x="226" y="750" type="line"/>
    </contour>
  </outline>
</glyph>
<glyph name="asciitilde" format="1">
  <advance width="520"/>
  <unicode hex="007E"/>
  <outline>
    <contour>
      <point x="104" y="249" type="line"/>
      <point x="118" y="278"/>
      <point x="143" y="285"/>
      <point x="176" y="285" type="curve" smooth="yes"/>
      <point x="226" y="285"/>
      <point x="288" y="250"/>
      <point x="345" y="250" type="curve" smooth="yes"/>
      <point x="405" y="250"/>
      <point x="446" y="269"/>
      <point x="465" y="323" type="curve"/>
      <point x="416" y="344" type="line"/>
      <point x="402" y="315"/>
      <point x="377" y="308"/>
      <point x="344" y="308" type="curve" smooth="yes"/>
      <point x="292" y="308"/>
      <point x="234" y="343"/>
      <point x="175" y="343" type="curve" smooth="yes"/>
      <point x="115" y="343"/>
      <point x="74" y="324"/>
      <point x="55" y="270" type="curve"/>
    </contour>
  </outline>
</glyph>
<glyph name="currency" format="1">
  <advance width="688"/>
  <unicode hex="00A4"/>
  <outline>
    <contour>
      <point x="103" y="-10" type="line"/>
      <point x="208" y="95" type="line"/>
      <point x="245" y="71"/>
      <point x="287" y="55"/>
      <point x="343" y="55" type="curve" smooth="yes"/>
      <point x="398" y="55"/>
      <point x="441" y="73"/>
      <point x="478" y="97" type="curve"/>
      <point x="585" y="-10" type="line"/>
      <point x="628" y="34" type="line"/>
      <point x="524" y="138" type="line"/>
      <point x="555" y="177"/>
      <point x="571" y="225"/>
      <point x="571" y="288" type="curve" smooth="yes"/>
      <point x="571" y="351"/>
      <point x="556" y="399"/>
      <point x="525" y="438" type="curve"/>
      <point x="628" y="542" type="line"/>
      <point x="585" y="586" type="line"/>
      <point x="479" y="480" type="line"/>
      <point x="442" y="504"/>
      <point x="398" y="521"/>
      <point x="343" y="521" type="curve" smooth="yes"/>
      <point x="287" y="521"/>
      <point x="246" y="504"/>
      <point x="209" y="480" type="curve"/>
      <point x="103" y="586" type="line"/>
      <point x="60" y="542" type="line"/>
      <point x="163" y="438" type="line"/>
      <point x="132" y="399"/>
      <point x="115" y="350"/>
      <point x="115" y="287" type="curve" smooth="yes"/>
      <point x="115" y="224"/>
      <point x="131" y="175"/>
      <point x="162" y="136" type="curve"/>
      <point x="60" y="34" type="line"/>
    </contour>
    <contour>
      <point x="178" y="288" type="curve" smooth="yes"/>
      <point x="178" y="396"/>
      <point x="243" y="467"/>
      <point x="344" y="467" type="curve" smooth="yes"/>
      <point x="445" y="467"/>
      <point x="510" y="398"/>
      <point x="510" y="290" type="curve" smooth="yes"/>
      <point x="510" y="183"/>
      <point x="445" y="108"/>
      <point x="344" y="108" type="curve" smooth="yes"/>
      <point x="244" y="108"/>
      <point x="178" y="180"/>
    </contour>
  </outline>
</glyph>
<glyph name="yen" format="1">
  <advance width="537"/>
  <unicode hex="00A5"/>
  <outline>
    <contour>
      <point x="142" y="210" type="line"/>
      <point x="142" y="162" type="line"/>
      <point x="250" y="162" type="line"/>
      <point x="250" y="118" type="line"/>
      <point x="142" y="118" type="line"/>
      <point x="142" y="70" type="line"/>
      <point x="250" y="70" type="line"/>
      <point x="250" y="0" type="line"/>
      <point x="304" y="0" type="line"/>
      <point x="304" y="70" type="line"/>
      <point x="414" y="70" type="line"/>
      <point x="414" y="118" type="line"/>
      <point x="304" y="118" type="line"/>
      <point x="304" y="162" type="line"/>
      <point x="414" y="162" type="line"/>
      <point x="414" y="210" type="line"/>
      <point x="304" y="210" type="line"/>
      <point x="304" y="246" type="line"/>
      <point x="320" y="246"/>
      <point x="343" y="248"/>
      <point x="358" y="252" type="curve"/>
      <point x="502" y="647" type="line"/>
      <point x="445" y="664" type="line"/>
      <point x="312" y="299" type="line"/>
      <point x="251" y="300"/>
      <point x="213" y="336"/>
      <point x="191" y="396" type="curve" smooth="yes"/>
      <point x="94" y="665" type="line"/>
      <point x="35" y="650" type="line"/>
      <point x="132" y="381" type="line" smooth="yes"/>
      <point x="151" y="328"/>
      <point x="190" y="273"/>
      <point x="250" y="253" type="curve"/>
      <point x="250" y="210" type="line"/>
    </contour>
  </outline>
</glyph>
<glyph name="copyright" format="1">
  <advance width="766"/>
  <unicode hex="00A9"/>
  <outline>
    <contour>
      <point x="316" y="248" type="curve" smooth="yes"/>
      <point x="316" y="305"/>
      <point x="332" y="358"/>
      <point x="386" y="358" type="curve" smooth="yes"/>
      <point x="408" y="358"/>
      <point x="441" y="356"/>
      <point x="469" y="353" type="curve"/>
      <point x="469" y="400" type="line"/>
      <point x="443" y="402"/>
      <point x="409" y="404"/>
      <point x="386" y="404" type="curve" smooth="yes"/>
      <point x="286" y="404"/>
      <point x="264" y="313"/>
      <point x="264" y="246" type="curve" smooth="yes"/>
      <point x="264" y="146"/>
      <point x="316" y="90"/>
      <point x="396" y="90" type="curve" smooth="yes"/>
      <point x="434" y="90"/>
      <point x="470" y="107"/>
      <point x="498" y="127" type="curve"/>
      <point x="476" y="165" type="line"/>
      <point x="451" y="148"/>
      <point x="425" y="136"/>
      <point x="402" y="136" type="curve" smooth="yes"/>
      <point x="348" y="136"/>
      <point x="316" y="176"/>
    </contour>
    <contour>
      <point x="384" y="-60" type="curve" smooth="yes"/>
      <point x="563" y="-60"/>
      <point x="686" y="70"/>
      <point x="686" y="246" type="curve" smooth="yes"/>
      <point x="686" y="420"/>
      <point x="563" y="549"/>
      <point x="384" y="549" type="curve" smooth="yes"/>
      <point x="203" y="549"/>
      <point x="80" y="418"/>
      <point x="80" y="243" type="curve" smooth="yes"/>
      <point x="80" y="66"/>
      <point x="203" y="-60"/>
    </contour>
    <contour>
      <point x="384" y="501" type="curve" smooth="yes"/>
      <point x="530" y="501"/>
      <point x="632" y="401"/>
      <point x="632" y="248" type="curve" smooth="yes"/>
      <point x="632" y="95"/>
      <point x="530" y="-13"/>
      <point x="384" y="-13" type="curve" smooth="yes"/>
      <point x="236" y="-13"/>
      <point x="134" y="91"/>
      <point x="134" y="246" type="curve" smooth="yes"/>
      <point x="134" y="397"/>
      <point x="236" y="501"/>
    </contour>
  </outline>
</glyph>
<glyph name="uni00AD" format="1">
  <advance width="392"/>
  <unicode hex="00AD"/>
  <outline>
    <contour>
      <point x="50" y="334" type="line"/>
      <point x="50" y="276" type="line"/>
      <point x="342" y="276" type="line"/>
      <point x="342" y="334" type="line"/>
    </contour>
  </outline>
</glyph>
<glyph name="registered" format="1">
  <advance width="766"/>
  <unicode hex="00AE"/>
  <outline>
    <contour>
      <point x="387" y="593" type="curve" smooth="yes"/>
      <point x="368" y="593"/>
      <point x="335" y="588"/>
      <point x="322" y="588" type="curve" smooth="yes"/>
      <point x="298" y="588"/>
      <point x="278" y="597"/>
      <point x="263" y="612" type="curve"/>
      <point x="234" y="583" type="line"/>
      <point x="251" y="561"/>
      <point x="271" y="550"/>
      <point x="291" y="545" type="curve"/>
      <point x="291" y="240" type="line"/>
      <point x="339" y="240" type="line"/>
      <point x="339" y="389" type="line"/>
      <point x="361" y="389" type="line" smooth="yes"/>
      <point x="410" y="389"/>
      <point x="434" y="360"/>
      <point x="445" y="331" type="curve" smooth="yes"/>
      <point x="477" y="246" type="line"/>
      <point x="524" y="266" type="line"/>
      <point x="486" y="358" type="line" smooth="yes"/>
      <point x="478" y="376"/>
      <point x="465" y="394"/>
      <point x="445" y="402" type="curve"/>
      <point x="476" y="413"/>
      <point x="504" y="447"/>
      <point x="504" y="488" type="curve" smooth="yes"/>
      <point x="504" y="549"/>
      <point x="457" y="593"/>
    </contour>
    <contour>
      <point x="339" y="542" type="line"/>
      <point x="339" y="542"/>
      <point x="362" y="547"/>
      <point x="386" y="547" type="curve" smooth="yes"/>
      <point x="428" y="547"/>
      <point x="456" y="524"/>
      <point x="456" y="488" type="curve" smooth="yes"/>
      <point x="456" y="451"/>
      <point x="430" y="429"/>
      <point x="397" y="429" type="curve" smooth="yes"/>
      <point x="339" y="429" type="line"/>
    </contour>
    <contour>
      <point x="384" y="117" type="curve" smooth="yes"/>
      <point x="563" y="117"/>
      <point x="686" y="247"/>
      <point x="686" y="423" type="curve" smooth="yes"/>
      <point x="686" y="597"/>
      <point x="563" y="726"/>
      <point x="384" y="726" type="curve" smooth="yes"/>
      <point x="203" y="726"/>
      <point x="80" y="595"/>
      <point x="80" y="420" type="curve" smooth="yes"/>
      <point x="80" y="243"/>
      <point x="203" y="117"/>
    </contour>
    <contour>
      <point x="384" y="678" type="curve" smooth="yes"/>
      <point x="530" y="678"/>
      <point x="632" y="578"/>
      <point x="632" y="425" type="curve" smooth="yes"/>
      <point x="632" y="272"/>
      <point x="530" y="164"/>
      <point x="384" y="164" type="curve" smooth="yes"/>
      <point x="236" y="164"/>
      <point x="134" y="268"/>
      <point x="134" y="423" type="curve" smooth="yes"/>
      <point x="134" y="574"/>
      <point x="236" y="678"/>
    </contour>
  </outline>
</glyph>
<glyph name="macron" format="1">
  <advance width="520"/>
  <unicode hex="00AF"/>
  <outline>
    <contour>
      <point x="423" y="684" type="line"/>
      <point x="97" y="684" type="line"/>
      <point x="97" y="627" type="line"/>
      <point x="423" y="627" type="line"/>
    </contour>
  </outline>
</glyph>
<glyph name="uni00B3" format="1">
  <advance width="268"/>
  <unicode hex="00B3"/>
  <outline>
    <contour>
      <point x="165" y="623" type="curve" smooth="yes"/>
      <point x="165" y="591"/>
      <point x="133" y="587"/>
      <point x="101" y="587" type="curve" smooth="yes"/>
      <point x="81" y="587" type="line"/>
      <point x="81" y="543" type="line"/>
      <point x="99" y="543" type="line" smooth="yes"/>
      <point x="119" y="543"/>
      <point x="137" y="545"/>
      <point x="153" y="550" type="curve"/>
      <point x="165" y="538"/>
      <point x="177" y="521"/>
      <point x="177" y="502" type="curve" smooth="yes"/>
      <point x="177" y="467"/>
      <point x="156" y="455"/>
      <point x="117" y="455" type="curve" smooth="yes"/>
      <point x="87" y="455"/>
      <point x="40" y="461"/>
      <point x="40" y="461" type="curve"/>
      <point x="40" y="418" type="line"/>
      <point x="40" y="418"/>
      <point x="88" y="412"/>
      <point x="118" y="412" type="curve" smooth="yes"/>
      <point x="182" y="412"/>
      <point x="223" y="440"/>
      <point x="223" y="500" type="curve" smooth="yes"/>
      <point x="223" y="533"/>
      <point x="207" y="557"/>
      <point x="192" y="573" type="curve"/>
      <point x="202" y="585"/>
      <point x="208" y="601"/>
      <point x="208" y="622" type="curve" smooth="yes"/>
      <point x="208" y="672"/>
      <point x="184" y="701"/>
      <point x="120" y="701" type="curve" smooth="yes"/>
      <point x="104" y="701"/>
      <point x="68" y="700"/>
      <point x="43" y="698" type="curve"/>
      <point x="43" y="656" type="line"/>
      <point x="48" y="656"/>
      <point x="63" y="657"/>
      <point x="70" y="657" type="curve" smooth="yes"/>
      <point x="89" y="658"/>
      <point x="113" y="659"/>
      <point x="122" y="659" type="curve" smooth="yes"/>
      <point x="149" y="659"/>
      <point x="165" y="648"/>
    </contour>
  </outline>
</glyph>
<glyph name="periodcentered" format="1">
  <advance width="293"/>
  <unicode hex="00B7"/>
  <outline>
    <contour>
      <point x="90" y="322" type="curve" smooth="yes"/>
      <point x="90" y="291"/>
      <point x="116" y="266"/>
      <point x="146" y="266" type="curve" smooth="yes"/>
      <point x="178" y="266"/>
      <point x="203" y="291"/>
      <point x="203" y="322" type="curve" smooth="yes"/>
      <point x="203" y="353"/>
      <point x="178" y="379"/>
      <point x="146" y="379" type="curve" smooth="yes"/>
      <point x="116" y="379"/>
      <point x="90" y="353"/>
    </contour>
  </outline>
</glyph>
<glyph name="guillemotright" format="1">
  <advance width="615"/>
  <unicode hex="00BB"/>
  <outline>
    <contour>
      <point x="317" y="19" type="line"/>
      <point x="523" y="203" type="line" smooth="yes"/>
      <point x="543" y="220"/>
      <point x="555" y="236"/>
      <point x="555" y="251" type="curve" smooth="yes"/>
      <point x="555" y="266"/>
      <point x="543" y="282"/>
      <point x="523" y="299" type="curve" smooth="yes"/>
      <point x="317" y="483" type="line"/>
      <point x="280" y="442" type="line"/>
      <point x="496" y="251" type="line"/>
      <point x="280" y="60" type="line"/>
    </contour>
    <contour>
      <point x="107" y="19" type="line"/>
      <point x="313" y="203" type="line" smooth="yes"/>
      <point x="333" y="220"/>
      <point x="345" y="236"/>
      <point x="345" y="251" type="curve" smooth="yes"/>
      <point x="345" y="266"/>
      <point x="333" y="282"/>
      <point x="313" y="299" type="curve" smooth="yes"/>
      <point x="107" y="483" type="line"/>
      <point x="70" y="442" type="line"/>
      <point x="286" y="251" type="line"/>
      <point x="70" y="60" type="line"/>
    </contour>
  </outline>
</glyph>
<glyph name="onequarter" format="1">
  <advance width="695"/>
  <unicode hex="00BC"/>
  <outline>
    <contour>
      <point x="439" y="653" type="line"/>
      <point x="220" y="0" type="line"/>
      <point x="279" y="0" type="line"/>
      <point x="497" y="653" type="line"/>
    </contour>
    <contour>
      <point x="507" y="280" type="line"/>
      <point x="481" y="94" type="line"/>
      <point x="629" y="94" type="line"/>
      <point x="629" y="0" type="line"/>
      <point x="675" y="0" type="line"/>
      <point x="675" y="280" type="line"/>
      <point x="629" y="280" type="line"/>
      <point x="629" y="138" type="line"/>
      <point x="532" y="138" type="line"/>
      <point x="552" y="280" type="line"/>
    </contour>
    <contour>
      <point x="219" y="663" type="line"/>
      <point x="189" y="643"/>
      <point x="158" y="626"/>
      <point x="120" y="626" type="curve" smooth="yes"/>
      <point x="116" y="626"/>
      <point x="112" y="626"/>
      <point x="99" y="629" type="curve"/>
      <point x="90" y="590" type="line"/>
      <point x="104" y="584"/>
      <point x="114" y="583"/>
      <point x="125" y="583" type="curve" smooth="yes"/>
      <point x="143" y="583"/>
      <point x="160" y="588"/>
      <point x="177" y="596" type="curve"/>
      <point x="177" y="373" type="line"/>
      <point x="225" y="373" type="line"/>
      <point x="225" y="659" type="line"/>
    </contour>
  </outline>
</glyph>
<glyph name="questiondown" format="1">
  <advance width="430"/>
  <unicode hex="00BF"/>
  <outline>
    <contour>
      <point x="67" y="-20" type="curve" smooth="yes"/>
      <point x="67" y="120"/>
      <point x="283" y="102"/>
      <point x="283" y="258" type="curve" smooth="yes"/>
      <point x="283" y="294"/>
      <point x="273" y="324"/>
      <point x="273" y="324" type="curve"/>
      <point x="214" y="312" type="line"/>
      <point x="214" y="312"/>
      <point x="224" y="288"/>
      <point x="224" y="258" type="curve" smooth="yes"/>
      <point x="224" y="151"/>
      <point x="10" y="153"/>
      <point x="10" y="-17" type="curve" smooth="yes"/>
      <point x="10" y="-123"/>
      <point x="64" y="-198"/>
      <point x="206" y="-198" type="curve" smooth="yes"/>
      <point x="246" y="-198"/>
      <point x="335" y="-194"/>
      <point x="380" y="-190" type="curve"/>
      <point x="380" y="-138" type="line"/>
      <point x="328" y="-142"/>
      <point x="233" y="-146"/>
      <point x="199" y="-146" type="curve" smooth="yes"/>
      <point x="113" y="-146"/>
      <point x="67" y="-100"/>
    </contour>
    <contour>
      <point x="269" y="452" type="curve" smooth="yes"/>
      <point x="269" y="483"/>
      <point x="243" y="508"/>
      <point x="213" y="508" type="curve" smooth="yes"/>
      <point x="181" y="508"/>
      <point x="156" y="483"/>
      <point x="156" y="452" type="curve" smooth="yes"/>
      <point x="156" y="421"/>
      <point x="181" y="395"/>
      <point x="213" y="395" type="curve" smooth="yes"/>
      <point x="243" y="395"/>
      <point x="269" y="421"/>
    </contour>
  </outline>
</glyph>
<glyph name="Aacute" format="1">
  <advance width="635"/>
  <unicode hex="00C1"/>
  <outline>
    <contour>
      <point x="307" y="703" type="line"/>
      <point x="10" y="0" type="line"/>
      <point x="74" y="0" type="line"/>
      <point x="169" y="227" type="line"/>
      <point x="464" y="227" type="line"/>
      <point x="561" y="0" type="line"/>
      <point x="625" y="0" type="line"/>
      <point x="326" y="703" type="line"/>
    </contour>
    <contour>
      <point x="292" y="517" type="line" smooth="yes"/>
      <point x="302" y="541"/>
      <point x="311" y="573"/>
      <point x="316" y="595" type="curve"/>
      <point x="321" y="574"/>
      <point x="330" y="542"/>
      <point x="341" y="517" type="curve" smooth="yes"/>
      <point x="440" y="284" type="line"/>
      <point x="193" y="284" type="line"/>
    </contour>
    <contour>
      <point x="308" y="723" type="line"/>
      <point x="508" y="768" type="line"/>
      <point x="490" y="826" type="line"/>
      <point x="296" y="763" type="line"/>
    </contour>
  </outline>
</glyph>
<glyph name="Acircumflex" format="1">
  <advance width="635"/>
  <unicode hex="00C2"/>
  <outline>
    <contour>
      <point x="307" y="703" type="line"/>
      <point x="10" y="0" type="line"/>
      <point x="74" y="0" type="line"/>
      <point x="169" y="227" type="line"/>
      <point x="464" y="227" type="line"/>
      <point x="561" y="0" type="line"/>
      <point x="625" y="0" type="line"/>
      <point x="326" y="703" type="line"/>
    </contour>
    <contour>
      <point x="292" y="517" type="line" smooth="yes"/>
      <point x="302" y="541"/>
      <point x="311" y="573"/>
      <point x="316" y="595" type="curve"/>
      <point x="321" y="574"/>
      <point x="330" y="542"/>
      <point x="341" y="517" type="curve" smooth="yes"/>
      <point x="440" y="284" type="line"/>
      <point x="193" y="284" type="line"/>
    </contour>
    <contour>
      <point x="474" y="756" type="line"/>
      <point x="365" y="858" type="line" smooth="yes"/>
      <point x="346" y="876"/>
      <point x="331" y="890"/>
      <point x="317" y="890" type="curve" smooth="yes"/>
      <point x="303" y="890"/>
      <point x="288" y="876"/>
      <point x="269" y="858" type="curve" smooth="yes"/>
      <point x="160" y="755" type="line"/>
      <point x="197" y="718" type="line"/>
      <point x="317" y="831" type="line"/>
      <point x="437" y="719" type="line"/>
    </contour>
  </outline>
</glyph>
<glyph name="AE" format="1">
  <advance width="880"/>
  <unicode hex="00C6"/>
  <outline>
    <contour>
      <point x="850" y="57" type="line"/>
      <point x="443" y="57" type="line"/>
      <point x="443" y="333" type="line"/>
      <point x="760" y="333" type="line"/>
      <point x="760" y="390" type="line"/>
      <point x="443" y="390" type="line"/>
      <point x="443" y="627" type="line"/>
      <point x="830" y="627" type="line"/>
      <point x="830" y="684" type="line"/>
      <point x="359" y="684" type="line"/>
      <point x="0" y="0" type="line"/>
      <point x="73" y="0" type="line"/>
      <point x="190" y="227" type="line"/>
      <point x="382" y="227" type="line"/>
      <point x="382" y="0" type="line"/>
      <point x="850" y="0" type="line"/>
    </contour>
    <contour>
      <point x="347" y="531" type="line" smooth="yes"/>
      <point x="368" y="573"/>
      <point x="378" y="607"/>
      <point x="382" y="623" type="curve"/>
      <point x="382" y="284" type="line"/>
      <point x="219" y="284" type="line"/>
    </contour>
  </outline>
</glyph>
<glyph name="Egrave" format="1">
  <advance width="593"/>
  <unicode hex="00C8"/>
  <outline>
    <contour>
      <point x="563" y="57" type="line"/>
      <point x="156" y="57" type="line"/>
      <point x="156" y="333" type="line"/>
      <point x="473" y="333" type="line"/>
      <point x="473" y="390" type="line"/>
      <point x="156" y="390" type="line"/>
      <point x="156" y="627" type="line"/>
      <point x="543" y="627" type="line"/>
      <point x="543" y="684" type="line"/>
      <point x="95" y="684" type="line"/>
      <point x="95" y="0" type="line"/>
      <point x="563" y="0" type="line"/>
    </contour>
    <contour>
      <point x="348" y="762" type="line"/>
      <point x="154" y="825" type="line"/>
      <point x="136" y="767" type="line"/>
      <point x="336" y="722" type="line"/>
    </contour>
  </outline>
</glyph>
<glyph name="Idieresis" format="1">
  <advance width="251"/>
  <unicode hex="00CF"/>
  <outline>
    <contour>
      <point x="95" y="684" type="line"/>
      <point x="95" y="0" type="line"/>
      <point x="156" y="0" type="line"/>
      <point x="156" y="684" type="line"/>
    </contour>
    <contour>
      <point x="-32" y="813" type="curve" smooth="yes"/>
      <point x="-32" y="789"/>
      <point x="-12" y="769"/>
      <point x="12" y="769" type="curve" smooth="yes"/>
      <point x="37" y="769"/>
      <point x="57" y="789"/>
      <point x="57" y="813" type="curve" smooth="yes"/>
      <point x="57" y="838"/>
      <point x="37" y="858"/>
      <point x="12" y="858" type="curve" smooth="yes"/>
      <point x="-12" y="858"/>
      <point x="-32" y="838"/>
    </contour>
    <contour>
      <point x="189" y="813" type="curve" smooth="yes"/>
      <point x="189" y="789"/>
      <point x="209" y="769"/>
      <point x="233" y="769" type="curve" smooth="yes"/>
      <point x="258" y="769"/>
      <point x="278" y="789"/>
      <point x="278" y="813" type="curve" smooth="yes"/>
      <point x="278" y="838"/>
      <point x="258" y="858"/>
      <point x="233" y="858" type="curve" smooth="yes"/>
      <point x="209" y="858"/>
      <point x="189" y="838"/>
    </contour>
  </outline>
</glyph>
<glyph name="Ucircumflex" format="1">
  <advance width="715"/>
  <unicode hex="00DB"/>
  <outline>
    <contour>
      <point x="90" y="684" type="line"/>
      <point x="90" y="267" type="line" smooth="yes"/>
      <point x="90" y="103"/>
      <point x="195" y="-10"/>
      <point x="358" y="-10" type="curve" smooth="yes"/>
      <point x="518" y="-10"/>
      <point x="625" y="103"/>
      <point x="625" y="267" type="curve" smooth="yes"/>
      <point x="625" y="684" type="line"/>
      <point x="564" y="684" type="line"/>
      <point x="564" y="267" type="line" smooth="yes"/>
      <point x="564" y="129"/>
      <point x="481" y="45"/>
      <point x="357" y="45" type="curve" smooth="yes"/>
      <point x="234" y="45"/>
      <point x="151" y="129"/>
      <point x="151" y="267" type="curve" smooth="yes"/>
      <point x="151" y="684" type="line"/>
    </contour>
    <contour>
      <point x="515" y="756" type="line"/>
      <point x="406" y="858" type="line" smooth="yes"/>
      <point x="387" y="876"/>
      <point x="372" y="890"/>
      <point x="358" y="890" type="curve" smooth="yes"/>
      <point x="344" y="890"/>
      <point x="329" y="876"/>
      <point x="310" y="858" type="curve" smooth="yes"/>
      <point x="201" y="755" type="line"/>
      <point x="238" y="718" type="line"/>
      <point x="358" y="831" type="line"/>
      <point x="478" y="719" type="line"/>
    </contour>
  </outline>
</glyph>
<glyph name="Yacute" format="1">
  <advance width="532"/>
  <unicode hex="00DD"/>
  <outline>
    <contour>
      <point x="358" y="262" type="curve"/>
      <point x="502" y="677" type="line"/>
      <point x="445" y="694" type="line"/>
      <point x="311" y="309" type="line"/>
      <point x="250" y="310"/>
      <point x="210" y="346"/>
      <point x="191" y="406" type="curve"/>
      <point x="94" y="695" type="line"/>
      <point x="35" y="680" type="line"/>
      <point x="132" y="391" type="line"/>
      <point x="149" y="338"/>
      <point x="187" y="284"/>
      <point x="246" y="264" type="curve"/>
      <point x="246" y="0" type="line"/>
      <point x="307" y="0" type="line"/>
      <point x="307" y="256" type="line"/>
      <point x="323" y="256"/>
      <point x="344" y="259"/>
    </contour>
    <contour>
      <point x="269" y="723" type="line"/>
      <point x="469" y="768" type="line"/>
      <point x="451" y="826" type="line"/>
      <point x="257" y="763" type="line"/>
    </contour>
  </outline>
</glyph>
<glyph name="atilde" format="1">
  <advance width="502"/>
  <unicode hex="00E3"/>
  <outline>
    <contour>
      <point x="210" y="-10" type="curve" smooth="yes"/>
      <point x="288" y="-10"/>
      <point x="341" y="22"/>
      <point x="366" y="72" type="curve"/>
      <point x="375" y="41"/>
      <point x="390" y="13"/>
      <point x="418" y="-8" type="curve"/>
      <point x="452" y="25" type="line"/>
      <point x="426" y="53"/>
      <point x="413" y="91"/>
      <point x="413" y="144" type="curve" smooth="yes"/>
      <point x="413" y="347" type="line" smooth="yes"/>
      <point x="413" y="448"/>
      <point x="365" y="508"/>
      <point x="254" y="508" type="curve" smooth="yes"/>
      <point x="186" y="508"/>
      <point x="118" y="478"/>
      <point x="79" y="444" type="curve"/>
      <point x="106" y="402" type="line"/>
      <point x="141" y="428"/>
      <point x="201" y="456"/>
      <point x="254" y="456" type="curve" smooth="yes"/>
      <point x="326" y="456"/>
      <point x="358" y="418"/>
      <point x="358" y="336" type="curve" smooth="yes"/>
      <point x="358" y="280" type="line"/>
      <point x="261" y="280" type="line" smooth="yes"/>
      <point x="158" y="280"/>
      <point x="50" y="245"/>
      <point x="50" y="133" type="curve" smooth="yes"/>
      <point x="50" y="39"/>
      <point x="119" y="-10"/>
    </contour>
    <contour>
      <point x="210" y="42" type="curve" smooth="yes"/>
      <point x="145" y="42"/>
      <point x="107" y="67"/>
      <point x="107" y="133" type="curve" smooth="yes"/>
      <point x="107" y="214"/>
      <point x="186" y="229"/>
      <point x="261" y="229" type="curve" smooth="yes"/>
      <point x="358" y="229" type="line"/>
      <point x="358" y="170" type="line"/>
      <point x="355" y="87"/>
      <point x="289" y="42"/>
    </contour>
    <contour>
      <point x="105" y="609" type="line"/>
      <point x="119" y="638"/>
      <point x="144" y="645"/>
      <point x="177" y="645" type="curve" smooth="yes"/>
      <point x="227" y="645"/>
      <point x="269" y="610"/>
      <point x="326" y="610" type="curve" smooth="yes"/>
      <point x="386" y="610"/>
      <point x="427" y="629"/>
      <point x="446" y="683" type="curve"/>
      <point x="397" y="701" type="line"/>
      <point x="383" y="672"/>
      <point x="358" y="665"/>
      <point x="325" y="665" type="curve" smooth="yes"/>
      <point x="273" y="665"/>
      <point x="235" y="700"/>
      <point x="176" y="700" type="curve" smooth="yes"/>
      <point x="116" y="700"/>
      <point x="75" y="681"/>
      <point x="56" y="627" type="curve"/>
    </contour>
  </outline>
</glyph>
<glyph name="ccedilla" format="1">
  <advance width="435"/>
  <unicode hex="00E7"/>
  <outline>
    <contour>
      <point x="117" y="250" type="curve" smooth="yes"/>
      <point x="117" y="358"/>
      <point x="147" y="456"/>
      <point x="249" y="456" type="curve" smooth="yes"/>
      <point x="283" y="456"/>
      <point x="338" y="452"/>
      <point x="390" y="448" type="curve"/>
      <point x="390" y="500" type="line"/>
      <point x="345" y="504"/>
      <point x="296" y="508"/>
      <point x="256" y="508" type="curve" smooth="yes"/>
      <point x="94" y="508"/>
      <point x="60" y="358"/>
      <point x="60" y="247" type="curve" smooth="yes"/>
      <point x="60" y="98"/>
      <point x="128" y="8"/>
      <point x="238" y="-7" type="curve"/>
      <point x="238" y="-103" type="line"/>
      <point x="258" y="-107"/>
      <point x="296" y="-105"/>
      <point x="296" y="-139" type="curve" smooth="yes"/>
      <point x="296" y="-177"/>
      <point x="271" y="-196"/>
      <point x="246" y="-224" type="curve"/>
      <point x="280" y="-257" type="line"/>
      <point x="330" y="-221"/>
      <point x="351" y="-169"/>
      <point x="351" y="-126" type="curve" smooth="yes"/>
      <point x="351" y="-92"/>
      <point x="324" y="-70"/>
      <point x="291" y="-66" type="curve"/>
      <point x="291" y="-9" type="line"/>
      <point x="347" y="-5"/>
      <point x="397" y="19"/>
      <point x="435" y="48" type="curve"/>
      <point x="409" y="90" type="line"/>
      <point x="367" y="63"/>
      <point x="323" y="42"/>
      <point x="276" y="42" type="curve" smooth="yes"/>
      <point x="176" y="42"/>
      <point x="117" y="115"/>
    </contour>
  </outline>
</glyph>
<glyph name="igrave" format="1">
  <advance width="235"/>
  <unicode hex="00EC"/>
  <outline>
    <contour>
      <point x="55" y="472" type="line"/>
      <point x="81" y="444"/>
      <point x="95" y="406"/>
      <point x="95" y="353" type="curve" smooth="yes"/>
      <point x="95" y="0" type="line"/>
      <point x="150" y="0" type="line"/>
      <point x="150" y="353" type="line" smooth="yes"/>
      <point x="150" y="408"/>
      <point x="139" y="469"/>
      <point x="89" y="505" type="curve"/>
    </contour>
    <contour>
      <point x="124" y="584" type="line"/>
      <point x="34" y="732" type="line"/>
      <point x="-16" y="699" type="line"/>
      <point x="91" y="560" type="line"/>
    </contour>
  </outline>
</glyph>
<glyph name="icircumflex" format="1">
  <advance width="235"/>
  <unicode hex="00EE"/>
  <outline>
    <contour>
      <point x="55" y="472" type="line"/>
      <point x="81" y="444"/>
      <point x="95" y="406"/>
      <point x="95" y="353" type="curve" smooth="yes"/>
      <point x="95" y="0" type="line"/>
      <point x="150" y="0" type="line"/>
      <point x="150" y="353" type="line" smooth="yes"/>
      <point x="150" y="408"/>
      <point x="139" y="469"/>
      <point x="89" y="505" type="curve"/>
    </contour>
    <contour>
      <point x="258" y="614" type="line"/>
      <point x="169" y="736" type="line" smooth="yes"/>
      <point x="154" y="757"/>
      <point x="136" y="768"/>
      <point x="121" y="768" type="curve" smooth="yes"/>
      <point x="106" y="768"/>
      <point x="88" y="757"/>
      <point x="73" y="736" type="curve" smooth="yes"/>
      <point x="-16" y="613" type="line"/>
      <point x="27" y="584" type="line"/>
      <point x="121" y="712" type="line"/>
      <point x="216" y="584" type="line"/>
    </contour>
  </outline>
</glyph>
<glyph name="odieresis" format="1">
  <advance width="597"/>
  <unicode hex="00F6"/>
  <outline>
    <contour>
      <point x="299" y="-10" type="curve" smooth="yes"/>
      <point x="448" y="-10"/>
      <point x="547" y="100"/>
      <point x="547" y="250" type="curve" smooth="yes"/>
      <point x="547" y="398"/>
      <point x="448" y="508"/>
      <point x="299" y="508" type="curve" smooth="yes"/>
      <point x="149" y="508"/>
      <point x="50" y="396"/>
      <point x="50" y="247" type="curve" smooth="yes"/>
      <point x="50" y="98"/>
      <point x="149" y="-10"/>
    </contour>
    <contour>
      <point x="299" y="456" type="curve" smooth="yes"/>
      <point x="414" y="456"/>
      <point x="490" y="375"/>
      <point x="490" y="252" type="curve" smooth="yes"/>
      <point x="490" y="128"/>
      <point x="414" y="42"/>
      <point x="299" y="42" type="curve" smooth="yes"/>
      <point x="183" y="42"/>
      <point x="107" y="125"/>
      <point x="107" y="250" type="curve" smooth="yes"/>
      <point x="107" y="373"/>
      <point x="183" y="456"/>
    </contour>
    <contour>
      <point x="143" y="662" type="curve" smooth="yes"/>
      <point x="143" y="638"/>
      <point x="163" y="618"/>
      <point x="187" y="618" type="curve" smooth="yes"/>
      <point x="212" y="618"/>
      <point x="232" y="638"/>
      <point x="232" y="662" type="curve" smooth="yes"/>
      <point x="232" y="687"/>
      <point x="212" y="707"/>
      <point x="187" y="707" type="curve" smooth="yes"/>
      <point x="163" y="707"/>
      <point x="143" y="687"/>
    </contour>
    <contour>
      <point x="364" y="662" type="curve" smooth="yes"/>
      <point x="364" y="638"/>
      <point x="384" y="618"/>
      <point x="408" y="618" type="curve" smooth="yes"/>
      <point x="433" y="618"/>
      <point x="453" y="638"/>
      <point x="453" y="662" type="curve" smooth="yes"/>
      <point x="453" y="687"/>
      <point x="433" y="707"/>
      <point x="408" y="707" type="curve" smooth="yes"/>
      <point x="384" y="707"/>
      <point x="364" y="687"/>
    </contour>
  </outline>
</glyph>
<glyph name="ucircumflex" format="1">
  <advance width="536"/>
  <unicode hex="00FB"/>
  <outline>
    <contour>
      <point x="486" y="25" type="line"/>
      <point x="460" y="53"/>
      <point x="447" y="91"/>
      <point x="447" y="144" type="curve" smooth="yes"/>
      <point x="447" y="498" type="line"/>
      <point x="392" y="498" type="line"/>
      <point x="392" y="145" type="line"/>
      <point x="345" y="81"/>
      <point x="303" y="42"/>
      <point x="232" y="42" type="curve" smooth="yes"/>
      <point x="156" y="42"/>
      <point x="124" y="80"/>
      <point x="124" y="162" type="curve" smooth="yes"/>
      <point x="124" y="255"/>
      <point x="132" y="301"/>
      <point x="132" y="364" type="curve" smooth="yes"/>
      <point x="132" y="403"/>
      <point x="127" y="467"/>
      <point x="103" y="504" type="curve"/>
      <point x="55" y="488" type="line"/>
      <point x="72" y="449"/>
      <point x="77" y="409"/>
      <point x="77" y="370" type="curve" smooth="yes"/>
      <point x="77" y="305"/>
      <point x="69" y="246"/>
      <point x="69" y="151" type="curve" smooth="yes"/>
      <point x="69" y="49"/>
      <point x="116" y="-10"/>
      <point x="232" y="-10" type="curve" smooth="yes"/>
      <point x="299" y="-10"/>
      <point x="354" y="21"/>
      <point x="397" y="87" type="curve"/>
      <point x="404" y="50"/>
      <point x="419" y="16"/>
      <point x="452" y="-8" type="curve"/>
    </contour>
    <contour>
      <point x="422" y="614" type="line"/>
      <point x="313" y="736" type="line" smooth="yes"/>
      <point x="296" y="756"/>
      <point x="280" y="768"/>
      <point x="265" y="768" type="curve" smooth="yes"/>
      <point x="250" y="768"/>
      <point x="234" y="756"/>
      <point x="217" y="736" type="curve" smooth="yes"/>
      <point x="108" y="613" type="line"/>
      <point x="145" y="580" type="line"/>
      <point x="265" y="714" type="line"/>
      <point x="385" y="581" type="line"/>
    </contour>
  </outline>
</glyph>
<glyph name="udieresis" format="1">
  <advance width="536"/>
  <unicode hex="00FC"/>
  <outline>
    <contour>
      <point x="486" y="25" type="line"/>
      <point x="460" y="53"/>
      <point x="447" y="91"/>
      <point x="447" y="144" type="curve" smooth="yes"/>
      <point x="447" y="498" type="line"/>
      <point x="392" y="498" type="line"/>
      <point x="392" y="145" type="line"/>
      <point x="345" y="81"/>
      <point x="303" y="42"/>
      <point x="232" y="42" type="curve" smooth="yes"/>
      <point x="156" y="42"/>
      <point x="124" y="80"/>
      <point x="124" y="162" type="curve" smooth="yes"/>
      <point x="124" y="255"/>
      <point x="132" y="301"/>
      <point x="132" y="364" type="curve" smooth="yes"/>
      <point x="132" y="403"/>
      <point x="127" y="467"/>
      <point x="103" y="504" type="curve"/>
      <point x="55" y="488" type="line"/>
      <point x="72" y="449"/>
      <point x="77" y="409"/>
      <point x="77" y="370" type="curve" smooth="yes"/>
      <point x="77" y="305"/>
      <point x="69" y="246"/>
      <point x="69" y="151" type="curve" smooth="yes"/>
      <point x="69" y="49"/>
      <point x="116" y="-10"/>
      <point x="232" y="-10" type="curve" smooth="yes"/>
      <point x="299" y="-10"/>
      <point x="354" y="21"/>
      <point x="397" y="87" type="curve"/>
      <point x="404" y="50"/>
      <point x="419" y="16"/>
      <point x="452" y="-8" type="curve"/>
    </contour>
    <contour>
      <point x="330" y="662" type="curve" smooth="yes"/>
      <point x="330" y="638"/>
      <point x="350" y="618"/>
      <point x="374" y="618" type="curve" smooth="yes"/>
      <point x="399" y="618"/>
      <point x="419" y="638"/>
      <point x="419" y="662" type="curve" smooth="yes"/>
      <point x="419" y="687"/>
      <point x="399" y="707"/>
      <point x="374" y="707" type="curve" smooth="yes"/>
      <point x="350" y="707"/>
      <point x="330" y="687"/>
    </contour>
    <contour>
      <point x="109" y="662" type="curve" smooth="yes"/>
      <point x="109" y="638"/>
      <point x="129" y="618"/>
      <point x="153" y="618" type="curve" smooth="yes"/>
      <point x="178" y="618"/>
      <point x="198" y="638"/>
      <point x="198" y="662" type="curve" smooth="yes"/>
      <point x="198" y="687"/>
      <point x="178" y="707"/>
      <point x="153" y="707" type="curve" smooth="yes"/>
      <point x="129" y="707"/>
      <point x="109" y="687"/>
    </contour>
  </outline>
</glyph>
<glyph name="dotlessi" format="1">
  <advance width="235"/>
  <unicode hex="0131"/>
  <outline>
    <contour>
      <point x="89" y="498" type="move" name="topdotlessi"/>
    </contour>
    <contour>
      <point x="55" y="472" type="line"/>
      <point x="81" y="444"/>
      <point x="95" y="406"/>
      <point x="95" y="353" type="curve" smooth="yes"/>
      <point x="95" y="0" type="line"/>
      <point x="150" y="0" type="line"/>
      <point x="150" y="353" type="line" smooth="yes"/>
      <point x="150" y="408"/>
      <point x="139" y="469"/>
      <point x="89" y="505" type="curve"/>
    </contour>
  </outline>
</glyph>
<glyph name="oe" format="1">
  <advance width="944"/>
  <unicode hex="0153"/>
  <outline>
    <contour>
      <point x="299" y="-10" type="curve" smooth="yes"/>
      <point x="400" y="-10"/>
      <point x="474" y="41"/>
      <point x="511" y="121" type="curve"/>
      <point x="541" y="36"/>
      <point x="606" y="-10"/>
      <point x="712" y="-10" type="curve" smooth="yes"/>
      <point x="784" y="-10"/>
      <point x="847" y="16"/>
      <point x="894" y="48" type="curve"/>
      <point x="868" y="90" type="line"/>
      <point x="818" y="63"/>
      <point x="768" y="42"/>
      <point x="712" y="42" type="curve" smooth="yes"/>
      <point x="608" y="42"/>
      <point x="557" y="97"/>
      <point x="545" y="200" type="curve"/>
      <point x="662" y="200" type="line" smooth="yes"/>
      <point x="773" y="200"/>
      <point x="882" y="238"/>
      <point x="882" y="356" type="curve" smooth="yes"/>
      <point x="882" y="450"/>
      <point x="800" y="508"/>
      <point x="701" y="508" type="curve" smooth="yes"/>
      <point x="611" y="508"/>
      <point x="546" y="450"/>
      <point x="515" y="369" type="curve"/>
      <point x="479" y="453"/>
      <point x="404" y="508"/>
      <point x="299" y="508" type="curve" smooth="yes"/>
      <point x="149" y="508"/>
      <point x="50" y="396"/>
      <point x="50" y="247" type="curve" smooth="yes"/>
      <point x="50" y="98"/>
      <point x="149" y="-10"/>
    </contour>
    <contour>
      <point x="299" y="456" type="curve" smooth="yes"/>
      <point x="414" y="456"/>
      <point x="490" y="375"/>
      <point x="490" y="252" type="curve" smooth="yes"/>
      <point x="490" y="128"/>
      <point x="414" y="42"/>
      <point x="299" y="42" type="curve" smooth="yes"/>
      <point x="183" y="42"/>
      <point x="107" y="125"/>
      <point x="107" y="250" type="curve" smooth="yes"/>
      <point x="107" y="373"/>
      <point x="183" y="456"/>
    </contour>
    <contour>
      <point x="701" y="459" type="curve" smooth="yes"/>
      <point x="774" y="459"/>
      <point x="825" y="418"/>
      <point x="825" y="356" type="curve" smooth="yes"/>
      <point x="825" y="309"/>
      <point x="799" y="252"/>
      <point x="662" y="252" type="curve" smooth="yes"/>
      <point x="542" y="252" type="line"/>
      <point x="543" y="355"/>
      <point x="604" y="459"/>
    </contour>
  </outline>
</glyph>
<glyph name="emdash" format="1">
  <advance width="587"/>
  <unicode hex="2014"/>
  <outline>
    <contour>
      <point x="587" y="334" type="line"/>
      <point x="0" y="334" type="line"/>
      <point x="0" y="277" type="line"/>
      <point x="587" y="277" type="line"/>
    </contour>
  </outline>
</glyph>
<glyph name="quotedblright" format="1">
  <advance width="374"/>
  <unicode hex="201D"/>
  <outline>
    <contour>
      <point x="100" y="662" type="curve"/>
      <point x="100" y="602" type="line" smooth="yes"/>
      <point x="100" y="549"/>
      <point x="86" y="511"/>
      <point x="60" y="483" type="curve"/>
      <point x="94" y="450" type="line"/>
      <point x="144" y="486"/>
      <point x="164" y="547"/>
      <point x="164" y="602" type="curve" smooth="yes"/>
      <point x="164" y="662" type="line" smooth="yes"/>
      <point x="164" y="680"/>
      <point x="151" y="695"/>
      <point x="132" y="695" type="curve" smooth="yes"/>
      <point x="114" y="695"/>
      <point x="100" y="680"/>
    </contour>
    <contour>
      <point x="225" y="662" type="curve"/>
      <point x="225" y="602" type="line" smooth="yes"/>
      <point x="225" y="549"/>
      <point x="211" y="511"/>
      <point x="185" y="483" type="curve"/>
      <point x="219" y="450" type="line"/>
      <point x="269" y="486"/>
      <point x="289" y="547"/>
      <point x="289" y="602" type="curve" smooth="yes"/>
      <point x="289" y="662" type="line" smooth="yes"/>
      <point x="289" y="680"/>
      <point x="276" y="695"/>
      <point x="257" y="695" type="curve" smooth="yes"/>
      <point x="239" y="695"/>
      <point x="225" y="680"/>
    </contour>
  </outline>
</glyph>
